<svg id="Layer_1" data-name="Layer 1" xmlns="http://www.w3.org/2000/svg" viewBox="0 0 3928.2 596.01"><path d="M600.79,316.2C594.16,706,18.37,706,11.8,316.19c6.63-389.8,582.41-389.68,589,0m323.07,0c-3.77,367.36-290.75,367.29-294.5,0,3.77-367.32,290.74-367.3,294.5,0m132.14,0c-.31,327.39-103.27,327.33-103.58,0,.31-327.33,103.29-327.38,103.58,0M1869.18,45.4l.82-.18V39H1703.55L1547.71,404.5,1391.86,39H1211v6.35c30.88,6.8,47.09,17,47,54.48V534.15c.09,37.46-16.16,47.69-47,54.48V595h122v-6.35c-30.88-6.79-47.09-17-47-54.48V124.9L1486.2,595h9L1703,111.79V544.9c-2.56,29.62-18.88,38.67-47,44.8V596h214v-6.3c-27.92-6.14-44.46-15.17-47-44.77L1822.86,100h-.17c0-37.11,15.52-47.4,46.08-54.3M1966.2,333c5.35-180.43,156.72-181.41,142.79,0Zm-2.2,22h250c8.92-174.87-195.34-244.62-301.59-118.36-33.23,39.84-50.52,103.79-48.88,161.85-7.22,248.33,315.49,291.34,347,41.62l-7.2-2.53c-65.75,144.21-253.48,72.86-239.67-82.56M2497,512.9c-8.2,19.45-25.31,30.15-48.24,30.15-70.23-9.69-81.12-97.17-83.2-169.85,0-107,33.28-176.21,84.79-176.21,21.57,0,38.55,10.7,46.65,29.37Zm165.19,76.28c-30.64-7.23-46.19-18-46.19-57V13.39l-185,54.5V74.7c89.55-9.7,61.53,59.14,66,116.1-136.91-69-269.22,71.88-260.81,215C2223,587.29,2418.13,689,2497,531.7V596h166v-6.66ZM2821.88,83.85c.92-87.56-133.65-86.3-133.24,0-.38,86.31,134.17,87.55,133.24,0m44.27,505.31c-30.61-7.25-46.15-18-46.15-57.16h0V174.47l-167,47.85V229c36.45,2.94,47.16,15.27,47,57.94V596h167v-6.68Zm427.06-.09c-30.65-7.23-46.21-18-46.21-57V174.6L3088,221v6.42c30.09,2.88,39.07,15.86,39,58.76v226c-9.85,19.48-28.33,31.06-50.71,31.84-36.3,0-56.29-24.52-56.29-69V174.61l-167,47.95v5.79c37.22,3,48.17,15.57,48,59.16,1.21,30.08-3.27,204.51,3.46,230.33,14,115.41,185.23,119.34,222.54,12.16v66h167v-6.66ZM3940,596v-6.67c-33.33-7.4-47.17-22-47-51.62V294.51c11.65-139.69-186-162.29-226.68-44.23-19.81-99.54-185.68-102.22-215.32-5.73V174.63l-167,46v6.49c36.75,2.87,48.18,15.56,48,57.09V596h155v-6.66c-26.85-6-36.13-17.41-36-46.86V263.72c7-16.35,21.07-35.72,48.9-35.72,34.57,0,52.1,24,52.1,71.28V596h156v-6.66c-26.85-6-36.13-17.42-36-46.86-.88-17.08,2.28-265-2.19-275.68C3677.2,249,3692.07,228,3721,228c35,0,52,23.31,52,71.28V596Z" transform="translate(-11.8 -13.39)"/></svg>