<svg id="Layer_1" data-name="Layer 1" xmlns="http://www.w3.org/2000/svg" viewBox="0 0 426 426"><path d="M43,256V469H469V43H43Zm187-47.7c20.7,45.9,31.8,69.4,32.3,68.5.5-.7,13.1-32.1,28.1-69.8l27.2-68.5,39.7-.3L397,138v3.3c0,3.1-1.1,4.3-11.7,13.3-6.4,5.4-12.3,10.4-13,10.9-1.1.8-1.3,16.6-1.4,86v85L384,349c11.5,11.1,13,12.9,13,15.7V368H340.5c-50.3,0-56.6-.2-57.2-1.6-1-2.5.7-4.6,13.9-17L310,337.5v-133L277.6,286l-32.4,81.5-4.4.3-4.4.3-36.3-79.6c-20-43.7-36.5-79.4-36.6-79.3s-.5,25.3-.9,55.9l-.7,55.6,17.6,20.6c14.8,17.4,17.6,21.1,17.3,23.4l-.3,2.8-41.2.3L114,368v-3.6c0-3.1,2.1-6.6,14.5-23.5L143,321V180.3l-14.5-17.7c-12.4-15.2-14.5-18.3-14.5-21.2V138l42.2.2,42.2.3Z" transform="translate(-43 -43)"/></svg>